<svg viewBox="0 0 459.91 458.03" xmlns="http://www.w3.org/2000/svg" id="Layer_2"><g id="Layer_1-2"><path d="M77.28,252.57c19.05-4.6,33.45-18.67,52.78-21.68v-5.65c-16.42-1.82-35.72-17.29-53.72-21.68-20.32-4.95-64.08,16.8-76.34,23.56v.94c14.68,7.39,53.46,30.26,77.28,24.5Z"></path><path d="M226.19,130.06c7.42-1.08,11.8-18.48,15.07-25.45,4.19-8.9,9.7-19.8,12.25-30.16,5.59-22.67-9.87-40.83-16.02-53.72-3.54-7.43-2.62-13.61-8.48-19.79-.96-.62-.94-.57-2.82-.94-3.52,21.04-29.41,49.62-21.68,78.22,4.43,16.39,19.96,36.52,21.68,51.83Z"></path><path d="M211.11,350.59c3.57-5.67,6.97-14.27,9.42-19.79.32-2.2.63-4.4.95-6.6,2.61-4.29,6.74-9.82,8.48-15.08h1.88c9.53,14.32,15.96,37.86,27.33,53.72,15.33,21.39,42.78,34.58,66.91,47.12,10.26,5.33,21.11,5.42,32.04,10.37,15.31,6.92,34.06,13.86,49.95,19.79,8.78,3.27,26.55,5.46,32.04,11.31,5.63-.04,6.37-.88,9.43-2.83-1.7-20.28-13.45-38.73-19.79-55.6-25.21-67.07-32.87-115.41-97.07-148.9-6.89-3.59-14.98-9.89-23.56-11.31v-2.83c17.85-8.79,36.56-17.66,51.83-29.22,30.27-22.9,50.48-69.17,69.74-103.67-1.3-2.57,3.85-13.51,5.65-17.91,2.12-5.17,4.96-12.42,7.54-18.85,3.67-9.17,1.16-19.37,5.66-27.33.17-7.44-.28-11.98-2.83-16.02-24.94.82-64.01,18.04-82.93,27.33-32.86,16.14-66.38,26.62-93.3,48.06-7.22,5.75-12.1,15.34-16.96,23.56-6.79,11.47-16.49,22.33-23.56,33.93-8.57-3.45-13.84-27.09-18.85-35.81-8.04-13.98-24.59-27.71-37.7-36.75-30.72-21.19-71.94-29.32-106.5-47.12-13.99-7.21-32.32-6.04-45.24-14.14-4.24.12-5.12.6-7.53,1.89.52,19.03,15.24,52.07,22.62,68.8,2.2,5,1.59,11.39,2.83,14.14,11.71,26.06,19.44,56.7,36.76,77.28,8.42,10.02,21.41,15.58,32.99,22.62,3.58,2.18,6.75,7.16,10.36,9.42,10.32,6.47,20.79,11.08,31.1,16.96-3.34,8.68-17.72,13.24-25.45,17.91-14.77,8.91-36.29,22.05-45.24,36.76-9.02,14.81-17.82,30.82-24.5,45.24-9.91,21.39-14.55,44.42-24.5,65.03-7.93,16.41-8.06,37.26-17.91,51.83.43,4.31,1.26,4.86,2.83,7.54,26.04-1.11,50.09-13.86,69.74-22.62,3.45-.63,6.91-1.26,10.36-1.89,30.04-11.89,76.12-30.41,93.3-54.66h2.83v-2.83h2.82c.73-3.05.94-2.23,1.89-4.71h2.82c1.71-6.83,8.06-8.96,11.31-14.14ZM286.5,157.39c8.33-21.45,13.06-36.76,31.1-48.06,12.32-7.72,44.85-11.92,53.72-20.73.63.31,1.26.63,1.88.94-1.35,11.29-7.56,18.12-11.31,27.33-9.39,23.08-15.62,40.93-36.75,51.83-11.39,5.87-37.37,8.75-45.24,16.96-2.95-.65-2.21-.21-3.77-1.88-.77-.85,8.94-22.71,10.36-26.39ZM276.14,273.31c7.59.95,13.33,4.79,18.85,7.54,3.45.63,6.92,1.26,10.37,1.89,9.26,4.03,20.72,7.62,29.22,13.19,14.18,9.3,35.58,55.29,38.64,73.51-9.51-.56-16.39-5.84-23.56-8.48-14.04-5.17-27.81-7.9-38.64-16.02-19.91-14.93-25.75-49-35.81-70.68.31-.31.63-.63.94-.94ZM172.47,304.41c1.97,3.94-5.91,17.17-8.48,20.73,2.16,3.96-8.38,13.13-11.31,16.02-7.94,7.85-51.66,28.09-65.97,28.27,1.41-7.56,5.56-14.63,8.48-20.73,11.16-23.31,14.86-45.13,38.64-57.49,14.51-7.54,34.49-8.86,48.06-17.91h1.89c-.23,10.78-6.57,23.65-11.31,31.1ZM104.61,137.6c-3.53-6.92-1.82-9.64-4.71-16.96-3.83-9.73-11.64-20.18-13.19-32.04,9.15,1.69,17.75,7.52,25.45,10.37,10.36,3.83,19.82,4.32,29.22,9.42,19.57,10.62,25.7,31.27,33.93,53.72,2.63,7.19,7.72,14.15,8.48,23.56-31.12-5.74-66.55-23.32-79.17-48.06Z"></path><path d="M245.97,426.92c14.52-34.7,10.92-46.61-4.71-78.22-3.5-7.08-4.41-17.19-11.3-20.73-7.42,19.37-29.16,48.01-22.62,77.28,4.14,18.52,15.89,35.3,22.62,52.78,7.66-1.57,12.19-21.94,16.02-31.1Z"></path><path d="M376.04,208.28c-15.21,5.77-30.46,17.94-47.13,20.73,2.07,8.06,16.43,9.79,23.56,13.19,10.96,5.23,23.63,9.95,36.76,14.14,10.61,3.38,39-11.11,45.24-14.14,8.19-3.96,18.73-4.16,24.5-10.37.32-.31.63-.63.94-.94-16.28-9.38-57.15-32.75-83.88-22.62Z"></path></g></svg>